# xmcd CD database file
#
# Track frame offsets:
#	150
#	18485
#	36135
#	45902
#	63200
#	80145
#	104117
#	131845
#	145097
#
# Disc length: 2094 seconds
#
# Revision: 0
# Processed by: cddbd v1.4PL0 Copyright (c) Steve Scherf et al.
# Submitted via: CDex 1.50
#
DISCID=7a082c09
DTITLE=The German All Stars - Deutsches Jazzfestival, 1953
DYEAR=1953
DGENRE=Jazz
TTITLE0=Festival Riff
TTITLE1=It's The Talk Of The Town
TTITLE2=The Man I Love
TTITLE3=Basin Street Blues
TTITLE4=How High The Moon
TTITLE5=Oh Lady Be Good
TTITLE6=Perdido
TTITLE7=Gondel Riff
TTITLE8=Festival Riff
EXTD=YEAR: 1953
EXTT0=
EXTT1=
EXTT2=
EXTT3=
EXTT4=
EXTT5=
EXTT6=
EXTT7=
EXTT8=
PLAYORDER=
